<mxfile host="app.diagrams.net" modified="2022-04-26T13:47:39.345Z" agent="5.0 (Windows NT 10.0; Win64; x64) AppleWebKit/537.36 (KHTML, like Gecko) Chrome/100.0.4896.127 Safari/537.36" etag="bVxaEBL69I8_5MfIhhTz" version="17.1.2" type="github">
  <diagram id="2n29XWjzfM3gDOLDsZi6" name="Page-1">
    <mxGraphModel dx="1955" dy="1090" grid="1" gridSize="10" guides="1" tooltips="1" connect="1" arrows="1" fold="1" page="1" pageScale="1" pageWidth="827" pageHeight="1169" math="0" shadow="0">
      <root>
        <mxCell id="0" />
        <mxCell id="1" parent="0" />
        <mxCell id="drGtO9NxJggxbJR8MEQ5-5" value="" style="edgeStyle=orthogonalEdgeStyle;rounded=0;orthogonalLoop=1;jettySize=auto;html=1;fontSize=16;" edge="1" parent="1" source="drGtO9NxJggxbJR8MEQ5-1" target="drGtO9NxJggxbJR8MEQ5-2">
          <mxGeometry relative="1" as="geometry" />
        </mxCell>
        <mxCell id="drGtO9NxJggxbJR8MEQ5-1" value="&lt;font style=&quot;font-size: 16px&quot;&gt;Начало&lt;/font&gt;" style="ellipse;whiteSpace=wrap;html=1;" vertex="1" parent="1">
          <mxGeometry x="246" y="30" width="96" height="60" as="geometry" />
        </mxCell>
        <mxCell id="drGtO9NxJggxbJR8MEQ5-6" value="" style="edgeStyle=orthogonalEdgeStyle;rounded=0;orthogonalLoop=1;jettySize=auto;html=1;fontSize=16;" edge="1" parent="1" source="drGtO9NxJggxbJR8MEQ5-2" target="drGtO9NxJggxbJR8MEQ5-3">
          <mxGeometry relative="1" as="geometry" />
        </mxCell>
        <mxCell id="drGtO9NxJggxbJR8MEQ5-2" value="Ввод исходных данных:&lt;br&gt;A, B, error" style="rounded=0;whiteSpace=wrap;html=1;fontSize=16;" vertex="1" parent="1">
          <mxGeometry x="221" y="120" width="146" height="80" as="geometry" />
        </mxCell>
        <mxCell id="drGtO9NxJggxbJR8MEQ5-7" value="" style="edgeStyle=orthogonalEdgeStyle;rounded=0;orthogonalLoop=1;jettySize=auto;html=1;fontSize=16;" edge="1" parent="1" source="drGtO9NxJggxbJR8MEQ5-3" target="drGtO9NxJggxbJR8MEQ5-4">
          <mxGeometry relative="1" as="geometry" />
        </mxCell>
        <mxCell id="drGtO9NxJggxbJR8MEQ5-15" style="edgeStyle=orthogonalEdgeStyle;rounded=0;orthogonalLoop=1;jettySize=auto;html=1;entryX=0.5;entryY=0;entryDx=0;entryDy=0;fontSize=16;" edge="1" parent="1" source="drGtO9NxJggxbJR8MEQ5-3" target="drGtO9NxJggxbJR8MEQ5-14">
          <mxGeometry relative="1" as="geometry" />
        </mxCell>
        <mxCell id="drGtO9NxJggxbJR8MEQ5-3" value="F(A)*F(B) &amp;lt; 0" style="html=1;whiteSpace=wrap;aspect=fixed;shape=isoRectangle;fontSize=16;strokeWidth=1;" vertex="1" parent="1">
          <mxGeometry x="219" y="240" width="150" height="90" as="geometry" />
        </mxCell>
        <mxCell id="drGtO9NxJggxbJR8MEQ5-9" value="" style="edgeStyle=orthogonalEdgeStyle;rounded=0;orthogonalLoop=1;jettySize=auto;html=1;fontSize=16;" edge="1" parent="1" source="drGtO9NxJggxbJR8MEQ5-4" target="drGtO9NxJggxbJR8MEQ5-8">
          <mxGeometry relative="1" as="geometry" />
        </mxCell>
        <mxCell id="drGtO9NxJggxbJR8MEQ5-11" value="" style="edgeStyle=orthogonalEdgeStyle;rounded=0;orthogonalLoop=1;jettySize=auto;html=1;fontSize=16;" edge="1" parent="1" source="drGtO9NxJggxbJR8MEQ5-4" target="drGtO9NxJggxbJR8MEQ5-10">
          <mxGeometry relative="1" as="geometry" />
        </mxCell>
        <mxCell id="drGtO9NxJggxbJR8MEQ5-4" value="F(A)*F&#39;&#39;(A) &amp;lt;= 0" style="html=1;whiteSpace=wrap;aspect=fixed;shape=isoRectangle;fontSize=16;" vertex="1" parent="1">
          <mxGeometry x="219" y="360" width="150" height="90" as="geometry" />
        </mxCell>
        <mxCell id="drGtO9NxJggxbJR8MEQ5-35" style="edgeStyle=orthogonalEdgeStyle;rounded=0;orthogonalLoop=1;jettySize=auto;html=1;fontSize=14;" edge="1" parent="1" source="drGtO9NxJggxbJR8MEQ5-8" target="drGtO9NxJggxbJR8MEQ5-23">
          <mxGeometry relative="1" as="geometry" />
        </mxCell>
        <mxCell id="drGtO9NxJggxbJR8MEQ5-8" value="X0 = A" style="whiteSpace=wrap;html=1;fontSize=16;" vertex="1" parent="1">
          <mxGeometry x="259" y="500" width="69" height="40" as="geometry" />
        </mxCell>
        <mxCell id="drGtO9NxJggxbJR8MEQ5-13" value="" style="edgeStyle=orthogonalEdgeStyle;rounded=0;orthogonalLoop=1;jettySize=auto;html=1;fontSize=16;entryX=0;entryY=0.5;entryDx=0;entryDy=0;" edge="1" parent="1" source="drGtO9NxJggxbJR8MEQ5-10" target="drGtO9NxJggxbJR8MEQ5-14">
          <mxGeometry relative="1" as="geometry">
            <mxPoint x="645" y="405" as="targetPoint" />
          </mxGeometry>
        </mxCell>
        <mxCell id="drGtO9NxJggxbJR8MEQ5-20" value="" style="edgeStyle=orthogonalEdgeStyle;rounded=0;orthogonalLoop=1;jettySize=auto;html=1;fontSize=16;" edge="1" parent="1" source="drGtO9NxJggxbJR8MEQ5-10" target="drGtO9NxJggxbJR8MEQ5-18">
          <mxGeometry relative="1" as="geometry" />
        </mxCell>
        <mxCell id="drGtO9NxJggxbJR8MEQ5-10" value="F(B)*F&#39;&#39;(B) &amp;lt;= 0" style="html=1;whiteSpace=wrap;aspect=fixed;shape=isoRectangle;fontSize=16;" vertex="1" parent="1">
          <mxGeometry x="400" y="360" width="150" height="90" as="geometry" />
        </mxCell>
        <mxCell id="drGtO9NxJggxbJR8MEQ5-14" value="&lt;font style=&quot;font-size: 16px&quot;&gt;Конец&lt;/font&gt;" style="ellipse;whiteSpace=wrap;html=1;" vertex="1" parent="1">
          <mxGeometry x="610" y="375" width="96" height="60" as="geometry" />
        </mxCell>
        <mxCell id="drGtO9NxJggxbJR8MEQ5-36" style="edgeStyle=orthogonalEdgeStyle;rounded=0;orthogonalLoop=1;jettySize=auto;html=1;entryX=0.5;entryY=0;entryDx=0;entryDy=0;fontSize=14;" edge="1" parent="1" source="drGtO9NxJggxbJR8MEQ5-18" target="drGtO9NxJggxbJR8MEQ5-23">
          <mxGeometry relative="1" as="geometry" />
        </mxCell>
        <mxCell id="drGtO9NxJggxbJR8MEQ5-18" value="X0 = B" style="whiteSpace=wrap;html=1;fontSize=16;" vertex="1" parent="1">
          <mxGeometry x="440.5" y="500" width="69" height="40" as="geometry" />
        </mxCell>
        <mxCell id="drGtO9NxJggxbJR8MEQ5-38" value="" style="edgeStyle=orthogonalEdgeStyle;rounded=0;orthogonalLoop=1;jettySize=auto;html=1;fontSize=14;" edge="1" parent="1" source="drGtO9NxJggxbJR8MEQ5-22" target="drGtO9NxJggxbJR8MEQ5-25">
          <mxGeometry relative="1" as="geometry" />
        </mxCell>
        <mxCell id="drGtO9NxJggxbJR8MEQ5-41" style="edgeStyle=orthogonalEdgeStyle;rounded=0;orthogonalLoop=1;jettySize=auto;html=1;entryX=0.5;entryY=1;entryDx=0;entryDy=0;fontSize=14;" edge="1" parent="1" source="drGtO9NxJggxbJR8MEQ5-22" target="drGtO9NxJggxbJR8MEQ5-14">
          <mxGeometry relative="1" as="geometry" />
        </mxCell>
        <mxCell id="drGtO9NxJggxbJR8MEQ5-22" value="&lt;font style=&quot;font-size: 14px&quot;&gt;|root - x0| &amp;gt;= error&lt;br&gt;&amp;amp; counter &amp;lt; 20000&lt;/font&gt;" style="html=1;whiteSpace=wrap;aspect=fixed;shape=isoRectangle;fontSize=16;" vertex="1" parent="1">
          <mxGeometry x="294.16" y="650" width="183.33" height="110" as="geometry" />
        </mxCell>
        <mxCell id="drGtO9NxJggxbJR8MEQ5-37" value="" style="edgeStyle=orthogonalEdgeStyle;rounded=0;orthogonalLoop=1;jettySize=auto;html=1;fontSize=14;" edge="1" parent="1" source="drGtO9NxJggxbJR8MEQ5-23" target="drGtO9NxJggxbJR8MEQ5-22">
          <mxGeometry relative="1" as="geometry" />
        </mxCell>
        <mxCell id="drGtO9NxJggxbJR8MEQ5-23" value="root = x0 - f(x0) / f&lt;font style=&quot;font-size: 18px&quot;&gt;&#39;&lt;/font&gt;(x0)" style="rounded=0;whiteSpace=wrap;html=1;fontSize=16;" vertex="1" parent="1">
          <mxGeometry x="296.49" y="580" width="179" height="40" as="geometry" />
        </mxCell>
        <mxCell id="drGtO9NxJggxbJR8MEQ5-24" value="&lt;font style=&quot;font-size: 16px&quot;&gt;x0 = root&lt;/font&gt;" style="rounded=0;whiteSpace=wrap;html=1;fontSize=18;" vertex="1" parent="1">
          <mxGeometry x="344.99" y="790" width="82" height="40" as="geometry" />
        </mxCell>
        <mxCell id="drGtO9NxJggxbJR8MEQ5-39" value="" style="edgeStyle=orthogonalEdgeStyle;rounded=0;orthogonalLoop=1;jettySize=auto;html=1;fontSize=14;" edge="1" parent="1" source="drGtO9NxJggxbJR8MEQ5-25" target="drGtO9NxJggxbJR8MEQ5-26">
          <mxGeometry relative="1" as="geometry" />
        </mxCell>
        <mxCell id="drGtO9NxJggxbJR8MEQ5-25" value="root = x0 - f(x0) / f&lt;font style=&quot;font-size: 18px&quot;&gt;&#39;&lt;/font&gt;(x0)" style="rounded=0;whiteSpace=wrap;html=1;fontSize=16;" vertex="1" parent="1">
          <mxGeometry x="298.65" y="850" width="179" height="40" as="geometry" />
        </mxCell>
        <mxCell id="drGtO9NxJggxbJR8MEQ5-40" style="edgeStyle=orthogonalEdgeStyle;rounded=0;orthogonalLoop=1;jettySize=auto;html=1;fontSize=14;" edge="1" parent="1">
          <mxGeometry relative="1" as="geometry">
            <mxPoint x="386" y="634" as="targetPoint" />
            <mxPoint x="384.1851851851851" y="934" as="sourcePoint" />
            <Array as="points">
              <mxPoint x="384" y="954" />
              <mxPoint x="256" y="954" />
              <mxPoint x="256" y="634" />
              <mxPoint x="376" y="634" />
            </Array>
          </mxGeometry>
        </mxCell>
        <mxCell id="drGtO9NxJggxbJR8MEQ5-26" value="counter++" style="rounded=0;whiteSpace=wrap;html=1;fontSize=14;" vertex="1" parent="1">
          <mxGeometry x="352.15000000000003" y="910" width="72" height="30" as="geometry" />
        </mxCell>
        <mxCell id="drGtO9NxJggxbJR8MEQ5-27" value="Нет" style="text;html=1;resizable=0;autosize=1;align=center;verticalAlign=middle;points=[];fillColor=none;strokeColor=none;rounded=0;fontSize=14;" vertex="1" parent="1">
          <mxGeometry x="469.5" y="250" width="40" height="20" as="geometry" />
        </mxCell>
        <mxCell id="drGtO9NxJggxbJR8MEQ5-28" value="Да" style="text;html=1;resizable=0;autosize=1;align=center;verticalAlign=middle;points=[];fillColor=none;strokeColor=none;rounded=0;fontSize=14;" vertex="1" parent="1">
          <mxGeometry x="312" y="330" width="30" height="20" as="geometry" />
        </mxCell>
        <mxCell id="drGtO9NxJggxbJR8MEQ5-29" value="Да" style="text;html=1;resizable=0;autosize=1;align=center;verticalAlign=middle;points=[];fillColor=none;strokeColor=none;rounded=0;fontSize=14;" vertex="1" parent="1">
          <mxGeometry x="368.83000000000004" y="375" width="30" height="20" as="geometry" />
        </mxCell>
        <mxCell id="drGtO9NxJggxbJR8MEQ5-30" value="Да" style="text;html=1;resizable=0;autosize=1;align=center;verticalAlign=middle;points=[];fillColor=none;strokeColor=none;rounded=0;fontSize=14;" vertex="1" parent="1">
          <mxGeometry x="560" y="375" width="30" height="20" as="geometry" />
        </mxCell>
        <mxCell id="drGtO9NxJggxbJR8MEQ5-31" value="Нет" style="text;html=1;resizable=0;autosize=1;align=center;verticalAlign=middle;points=[];fillColor=none;strokeColor=none;rounded=0;fontSize=14;" vertex="1" parent="1">
          <mxGeometry x="490" y="460" width="40" height="20" as="geometry" />
        </mxCell>
        <mxCell id="drGtO9NxJggxbJR8MEQ5-32" value="Нет" style="text;html=1;resizable=0;autosize=1;align=center;verticalAlign=middle;points=[];fillColor=none;strokeColor=none;rounded=0;fontSize=14;" vertex="1" parent="1">
          <mxGeometry x="302" y="460" width="40" height="20" as="geometry" />
        </mxCell>
        <mxCell id="drGtO9NxJggxbJR8MEQ5-42" value="Нет" style="text;html=1;resizable=0;autosize=1;align=center;verticalAlign=middle;points=[];fillColor=none;strokeColor=none;rounded=0;fontSize=14;" vertex="1" parent="1">
          <mxGeometry x="550" y="670" width="40" height="20" as="geometry" />
        </mxCell>
        <mxCell id="drGtO9NxJggxbJR8MEQ5-43" value="Да" style="text;html=1;resizable=0;autosize=1;align=center;verticalAlign=middle;points=[];fillColor=none;strokeColor=none;rounded=0;fontSize=14;" vertex="1" parent="1">
          <mxGeometry x="395" y="760" width="30" height="20" as="geometry" />
        </mxCell>
      </root>
    </mxGraphModel>
  </diagram>
</mxfile>
